<?xml version="1.0" encoding="UTF-8"?>
<svg version="1.1" xmlns="http://www.w3.org/2000/svg" width="1050" height="388">
<path d="M0 0 C10.56710765 9.74062996 13.60377718 23.37176255 14.66015625 37.18359375 C14.78292241 40.56195977 14.7874854 43.93464433 14.77368164 47.31494141 C14.77382767 48.27225159 14.77397369 49.22956177 14.77412415 50.21588135 C14.77343401 53.34316365 14.76568421 56.4703845 14.7578125 59.59765625 C14.75594512 61.78054776 14.75452273 63.9634397 14.75352478 66.14633179 C14.7497248 71.8640053 14.73991627 77.58165302 14.7288208 83.29931641 C14.71674371 90.17440762 14.71219244 97.04950751 14.70636749 103.92460632 C14.69670298 114.34428669 14.67752882 124.76391055 14.66015625 135.18359375 C-4.47984375 135.18359375 -23.61984375 135.18359375 -43.33984375 135.18359375 C-43.37722656 128.61195313 -43.41460938 122.0403125 -43.453125 115.26953125 C-43.48340405 111.10414052 -43.51455153 106.93879256 -43.54882812 102.7734375 C-43.60314027 96.16327064 -43.65425091 89.55318838 -43.6862793 82.94287109 C-43.71230509 77.61296125 -43.75270278 72.28333568 -43.80303001 66.95360184 C-43.81970355 64.92110355 -43.83121479 62.88855608 -43.83745766 60.85599899 C-43.84709329 58.00704967 -43.87514659 55.15882843 -43.9074707 52.31005859 C-43.90603561 51.4713623 -43.90460052 50.63266602 -43.90312195 49.76855469 C-43.98190571 44.8526378 -44.61315112 41.43938244 -47.33984375 37.18359375 C-53.34517293 32.82973009 -59.14137885 32.51912007 -66.33984375 33.18359375 C-72.79659453 34.77188539 -79.6933335 37.22641149 -84.33984375 42.18359375 C-85.35668722 45.21589429 -85.28530686 48.11202196 -85.22631836 51.28833008 C-85.23709412 52.19614227 -85.24786987 53.10395447 -85.25897217 54.03927612 C-85.28632485 57.03222204 -85.26449994 60.02267168 -85.2421875 63.015625 C-85.25157198 65.09357771 -85.26402939 67.17151863 -85.2794342 69.24943542 C-85.31168478 74.71261969 -85.30220851 80.17496525 -85.28405762 85.63818359 C-85.27094543 92.19618315 -85.30962989 98.75405679 -85.33963776 105.31197357 C-85.37940029 115.26964822 -85.35334534 125.22520724 -85.33984375 135.18359375 C-104.14984375 135.18359375 -122.95984375 135.18359375 -142.33984375 135.18359375 C-142.33984375 87.99359375 -142.33984375 40.80359375 -142.33984375 -7.81640625 C-124.51984375 -7.81640625 -106.69984375 -7.81640625 -88.33984375 -7.81640625 C-87.84484375 -2.86640625 -87.84484375 -2.86640625 -87.33984375 2.18359375 C-86.49164062 1.7246875 -85.6434375 1.26578125 -84.76953125 0.79296875 C-60.21012159 -12.185351 -23.66965574 -18.37460755 0 0 Z " fill="#FFFFFF" transform="translate(602.33984375,158.81640625)"/>
<path d="M0 0 C21.98289263 -0.52288347 44.32764235 3.59556754 60.87792969 19.0637207 C73.731421 31.61834434 76.96723085 44.39952218 79.50390625 62.15625 C79.50390625 72.05625 79.50390625 81.95625 79.50390625 92.15625 C30.99390625 92.65125 30.99390625 92.65125 -18.49609375 93.15625 C-11.06511944 104.30271147 -5.98931854 107.4919888 6.50390625 110.15625 C25.69233692 113.73644279 48.18970592 112.14958762 66.69140625 105.70703125 C68.50390625 105.15625 68.50390625 105.15625 71.50390625 105.15625 C71.50390625 116.70625 71.50390625 128.25625 71.50390625 140.15625 C55.68289458 145.80661131 55.68289458 145.80661131 50.19140625 146.90625 C49.12277344 147.12796875 48.05414062 147.3496875 46.953125 147.578125 C39.85614045 148.76765355 32.84817457 149.31896851 25.65625 149.359375 C24.84128555 149.36507507 24.02632111 149.37077515 23.18666077 149.37664795 C21.47154 149.38602752 19.75640179 149.3926036 18.04125977 149.39648438 C15.47183165 149.40613572 12.90322382 149.43720442 10.33398438 149.46875 C-5.15280664 149.56840856 -19.22263559 147.60888847 -33.49609375 141.15625 C-34.429375 140.73730469 -35.36265625 140.31835938 -36.32421875 139.88671875 C-51.09715268 132.56356436 -62.7365407 119.52917469 -68.49609375 104.15625 C-75.91640888 81.21510905 -74.41874436 54.73978835 -63.49609375 33.15625 C-53.45838179 17.06944609 -39.3992222 7.27036664 -21.12109375 2.71875 C-14.0476023 1.09751285 -7.23074854 0.32316195 0 0 Z M-15.74609375 45.46875 C-19.13049929 50.66622994 -19.49609375 54.99044549 -19.49609375 61.15625 C-3.32609375 61.15625 12.84390625 61.15625 29.50390625 61.15625 C29.71840255 51.25636789 29.71840255 51.25636789 25.50390625 43.15625 C19.4250889 37.78427188 11.65650762 36.74841122 3.765625 36.96875 C-4.21772106 37.6305818 -10.0235774 39.58727487 -15.74609375 45.46875 Z " fill="#FFFFFF" transform="translate(826.49609375,147.84375)"/>
<path d="M0 0 C21.98289263 -0.52288347 44.32764235 3.59556754 60.87792969 19.0637207 C73.731421 31.61834434 76.96723085 44.39952218 79.50390625 62.15625 C79.50390625 72.05625 79.50390625 81.95625 79.50390625 92.15625 C30.99390625 92.65125 30.99390625 92.65125 -18.49609375 93.15625 C-11.06511944 104.30271147 -5.98931854 107.4919888 6.50390625 110.15625 C25.69233692 113.73644279 48.18970592 112.14958762 66.69140625 105.70703125 C68.50390625 105.15625 68.50390625 105.15625 71.50390625 105.15625 C71.50390625 116.70625 71.50390625 128.25625 71.50390625 140.15625 C55.68289458 145.80661131 55.68289458 145.80661131 50.19140625 146.90625 C49.12277344 147.12796875 48.05414063 147.3496875 46.953125 147.578125 C39.85614045 148.76765355 32.84817457 149.31896851 25.65625 149.359375 C24.84128555 149.36507507 24.02632111 149.37077515 23.18666077 149.37664795 C21.47154 149.38602752 19.75640179 149.3926036 18.04125977 149.39648438 C15.47183165 149.40613572 12.90322382 149.43720442 10.33398438 149.46875 C-5.15280664 149.56840856 -19.22263559 147.60888847 -33.49609375 141.15625 C-34.429375 140.73730469 -35.36265625 140.31835938 -36.32421875 139.88671875 C-51.09715268 132.56356436 -62.7365407 119.52917469 -68.49609375 104.15625 C-75.91640888 81.21510905 -74.41874436 54.73978835 -63.49609375 33.15625 C-53.45838179 17.06944609 -39.3992222 7.27036664 -21.12109375 2.71875 C-14.0476023 1.09751285 -7.23074854 0.32316195 0 0 Z M-15.74609375 45.46875 C-19.13049929 50.66622994 -19.49609375 54.99044549 -19.49609375 61.15625 C-3.32609375 61.15625 12.84390625 61.15625 29.50390625 61.15625 C29.71840255 51.25636789 29.71840255 51.25636789 25.50390625 43.15625 C19.4250889 37.78427188 11.65650762 36.74841122 3.765625 36.96875 C-4.21772106 37.6305818 -10.0235774 39.58727487 -15.74609375 45.46875 Z " fill="#FFFFFF" transform="translate(106.49609375,147.84375)"/>
<path d="M0 0 C42.9 0 85.8 0 130 0 C130 34 130 34 124.25 42.75 C120.640625 45.984375 120.640625 45.984375 118.78710938 47.47851562 C115.82238344 50.00258284 113.46096581 52.99692756 111 56 C110.01337679 57.15877689 109.02377743 58.31502623 108.03125 59.46875 C107.53625 60.04625 107.04125 60.62375 106.53125 61.21875 C103.86421986 64.32121364 101.18186162 67.41035829 98.5 70.5 C94.15296264 75.50913864 89.81761895 80.52797303 85.5 85.5625 C85.01982422 86.12195313 84.53964844 86.68140625 84.04492188 87.2578125 C83.58666016 87.79277344 83.12839844 88.32773438 82.65625 88.87890625 C82.26244141 89.3385376 81.86863281 89.79816895 81.46289062 90.27172852 C79.29327514 92.83493079 77.14984152 95.42019018 75 98 C93.81 98.33 112.62 98.66 132 99 C132 113.52 132 128.04 132 143 C87.78 143 43.56 143 -2 143 C-2 111 -2 111 8 100 C10.17635506 97.3189829 12.35254588 94.63781475 14.51953125 91.94921875 C17.93337809 87.8902355 21.56534941 84.05466338 25.20019531 80.19433594 C29.23666843 75.88420363 32.98541053 71.40813306 36.67578125 66.796875 C39.89212271 62.92645402 43.30601404 59.2553349 46.75219727 55.58959961 C47.23100342 55.07921143 47.70980957 54.56882324 48.203125 54.04296875 C48.62239258 53.59977295 49.04166016 53.15657715 49.47363281 52.69995117 C51.72148699 50.19646291 53.84605757 47.58473091 56 45 C37.52 44.67 19.04 44.34 0 44 C0 29.48 0 14.96 0 0 Z " fill="#FFFFFF" transform="translate(209,151)"/>
<path d="M0 0 C0 13.86 0 27.72 0 42 C10.89 42 21.78 42 33 42 C32.34 56.19 31.68 70.38 31 85 C20.77 85 10.54 85 0 85 C0.07409676 91.99320083 0.15702001 98.98514588 0.26245117 105.9777832 C0.29564115 108.35499499 0.32369141 110.73228446 0.34643555 113.10961914 C0.38008986 116.53305058 0.43241301 119.95577396 0.48828125 123.37890625 C0.49467117 124.43646622 0.5010611 125.49402618 0.50764465 126.58363342 C0.62389602 132.45963572 1.0867083 136.84343889 4 142 C8.6157541 145.31820683 12.84635656 145.43483983 18.3125 145.3125 C19.02083984 145.31572266 19.72917969 145.31894531 20.45898438 145.32226562 C26.06507607 145.26635719 30.31772447 144.2627279 36 143 C36 155.87 36 168.74 36 182 C23.50258113 187.35603666 11.81695057 188.49563529 -1.6875 188.375 C-3.65299805 188.39240234 -3.65299805 188.39240234 -5.65820312 188.41015625 C-20.215888 188.36659211 -33.31099914 185.41621805 -44.3125 175.375 C-55.25418787 163.60371695 -57.47727016 148.55353149 -57.29296875 133.14453125 C-57.28735858 131.74778199 -57.28309522 130.35102674 -57.28010559 128.95426941 C-57.26876832 125.31610191 -57.23940038 121.67830603 -57.20599365 118.0402832 C-57.17504972 114.31271387 -57.16154883 110.58508322 -57.14648438 106.85742188 C-57.11451704 99.57142727 -57.06184363 92.2858135 -57 85 C-63.27 85 -69.54 85 -76 85 C-76 70.81 -76 56.62 -76 42 C-69.73 42 -63.46 42 -57 42 C-57 32.43 -57 22.86 -57 13 C-50.25588668 11.30823037 -43.51160122 9.61718124 -36.7668457 7.92797852 C-34.47279368 7.35320896 -32.17884746 6.77801692 -29.88500977 6.20239258 C-26.58637834 5.37469961 -23.28736838 4.54853072 -19.98828125 3.72265625 C-18.45207878 3.33667015 -18.45207878 3.33667015 -16.88484192 2.94288635 C-15.92422348 2.70271286 -14.96360504 2.46253937 -13.97387695 2.21508789 C-12.71145927 1.89865074 -12.71145927 1.89865074 -11.42353821 1.57582092 C-7.48024056 0.63891253 -4.08054011 0 0 0 Z " fill="#FFFFFF" transform="translate(713,109)"/>
<path d="M0 0 C18.81 0 37.62 0 57 0 C57.02505615 4.69428223 57.0501123 9.38856445 57.07592773 14.22509766 C57.15933304 29.71967444 57.24797889 45.21421795 57.33933926 60.70874977 C57.39461286 70.10481154 57.44808519 79.50087711 57.49731445 88.89697266 C57.54022815 97.08678096 57.58652419 105.27656197 57.63687855 113.46632802 C57.66342163 117.80256176 57.68827315 122.13879029 57.70907402 126.47505569 C57.72871148 130.55764606 57.75287618 134.64018477 57.78049088 138.72272873 C57.78982376 140.2198772 57.79751241 141.71703697 57.80341911 143.21420288 C57.8117446 145.26156138 57.82603854 147.30879661 57.84178162 149.35610962 C57.84823417 150.50097651 57.85468672 151.64584339 57.8613348 152.82540321 C57.99823537 155.95960061 58.4160687 158.92045403 59 162 C62.59141134 163.19713711 65.52680108 163.13248902 69.3125 163.125 C70.60800781 163.12757813 71.90351562 163.13015625 73.23828125 163.1328125 C77.3943544 163.06736363 77.3943544 163.06736363 83 162 C83 174.87 83 187.74 83 201 C71.91645487 204.69451504 63.86940852 206.20971102 52.61010742 206.24023438 C50.46818016 206.2498621 48.32724625 206.28088456 46.18554688 206.3125 C32.80292151 206.41674767 19.98186718 204.72142238 9.96484375 195.03125 C2.24582102 185.98475203 -0.12884725 174.45918054 -0.12025452 162.82461548 C-0.12110894 162.12528503 -0.12196337 161.42595458 -0.12284368 160.7054323 C-0.12448373 158.37472132 -0.11900139 156.04408319 -0.11352539 153.71337891 C-0.11324317 152.03763836 -0.11340193 150.3618977 -0.1139679 148.68615723 C-0.11425452 144.14532416 -0.10837947 139.60451758 -0.10139394 135.06369066 C-0.09513807 130.31511603 -0.09455483 125.56654077 -0.09336853 120.81796265 C-0.0902618 111.82958412 -0.08205728 102.84121777 -0.07201904 93.8528446 C-0.06083747 83.61831901 -0.0553423 73.38379284 -0.05032361 63.14926267 C-0.03987413 42.09950014 -0.02153682 21.0497543 0 0 Z " fill="#FFFFFF" transform="translate(933,91)"/>
<path d="M0 0 C18.81 0 37.62 0 57 0 C57 64.02 57 128.04 57 194 C38.19 194 19.38 194 0 194 C0 129.98 0 65.96 0 0 Z " fill="#FFFFFF" transform="translate(369,100)"/>
</svg>
